<svg xmlns="http://www.w3.org/2000/svg" viewBox="0 0 142.03 89.4"><defs><style>.cls-1{fill:#eaeeef;}.cls-2{fill:#d2d9db;}.cls-3{fill:#fff;}.cls-4{fill:#d3a9b3;}.cls-5{fill:#c64f63;}.cls-6{fill:#d3dbdd;}.cls-7{fill:none;stroke:#d3dbdd;stroke-linecap:round;stroke-linejoin:round;stroke-width:2px;}</style></defs><title>Ресурс 2</title><g id="Слой_2" data-name="Слой 2"><g id="Слой_1-2" data-name="Слой 1"><path class="cls-1" d="M93.31,18.87A2.34,2.34,0,0,0,91,16.54H48.3A2.33,2.33,0,0,0,46,18.87V72.41a2.32,2.32,0,0,0,2.32,2.32H91a2.33,2.33,0,0,0,2.33-2.32V18.87Z"/><path class="cls-2" d="M14.52,40l1.12-2.24a.73.73,0,0,0-.33-1,.72.72,0,0,0-1,.33l-1.11,2.24L11,38.28a.72.72,0,0,0-.64,1.29l2.25,1.11-1.12,2.25a.72.72,0,0,0,.33,1,.68.68,0,0,0,.54,0,.74.74,0,0,0,.42-.36l1.11-2.25,2.25,1.12a.75.75,0,0,0,.55,0,.69.69,0,0,0,.41-.36.71.71,0,0,0-.32-1Z"/><path class="cls-2" d="M36.66,23.81l1.91,0a.55.55,0,0,0,.55-.55.55.55,0,0,0-.54-.55H36.66l0-1.92a.55.55,0,0,0-1.1,0v1.92l-1.91,0a.55.55,0,1,0,0,1.1h1.91v1.92a.52.52,0,0,0,.15.38.56.56,0,0,0,.39.17.55.55,0,0,0,.55-.55Z"/><path class="cls-2" d="M106.81,45.6l1.81-.62a.54.54,0,0,0-.35-1l-1.82.61-.61-1.81a.55.55,0,1,0-1,.36l.62,1.81-1.81.61a.56.56,0,0,0-.35.7.57.57,0,0,0,.28.31.51.51,0,0,0,.42,0l1.81-.62.62,1.82a.55.55,0,0,0,.69.34.55.55,0,0,0,.34-.7Z"/><path class="cls-2" d="M134.05,16.13l1.59-.54a.48.48,0,0,0,.3-.61.47.47,0,0,0-.61-.3l-1.59.54-.54-1.59a.48.48,0,1,0-.91.31l.54,1.59-1.59.54a.49.49,0,0,0-.3.61.53.53,0,0,0,.25.28.5.5,0,0,0,.36,0l1.59-.54.54,1.59a.51.51,0,0,0,.25.27.45.45,0,0,0,.36,0,.47.47,0,0,0,.3-.61Z"/><rect class="cls-2" x="16.56" y="54.36" width="5" height="2" rx="1" ry="1" transform="translate(-13.36 6.6) rotate(-14.62)"/><rect class="cls-2" x="114.56" y="1.36" width="5" height="2" rx="1" ry="1" transform="translate(65.21 107.33) rotate(-64.87)"/><rect class="cls-2" x="134.56" y="47.36" width="5" height="2" rx="1" ry="1" transform="translate(60.23 -75.01) rotate(38.65)"/><rect class="cls-2" x="-0.44" y="29.36" width="5" height="2" rx="1" ry="1" transform="translate(-17.95 53.28) rotate(-135)"/><path class="cls-2" d="M21.81,7.11a3,3,0,1,0,3,3A3,3,0,0,0,21.81,7.11Zm0,4.5a1.5,1.5,0,1,1,1.5-1.5A1.5,1.5,0,0,1,21.81,11.61Z"/><path class="cls-2" d="M119.87,27.48A4.57,4.57,0,1,0,124.44,32,4.56,4.56,0,0,0,119.87,27.48Zm0,6.85A2.29,2.29,0,1,1,122.15,32,2.28,2.28,0,0,1,119.87,34.33Z"/><path class="cls-2" d="M17.18,21.36a2.38,2.38,0,1,0,2.38,2.37A2.37,2.37,0,0,0,17.18,21.36Zm0,3.56a1.19,1.19,0,1,1,1.19-1.19A1.18,1.18,0,0,1,17.18,24.92Z"/><path class="cls-2" d="M33.72,49.23l-3.35-2a1.6,1.6,0,0,1,.06-2.78l3.44-1.89h0a1.56,1.56,0,0,1,1.6,0,1.58,1.58,0,0,1,.78,1.4l-.09,3.93a1.58,1.58,0,0,1-.83,1.37A1.6,1.6,0,0,1,33.72,49.23Zm.87-5.39-3.44,1.89a.11.11,0,0,0,0,.09.08.08,0,0,0,0,.08l3.36,2s0,0,.09,0a.09.09,0,0,0,0-.08l.09-3.93a.08.08,0,0,0-.05-.08.12.12,0,0,0-.1,0Z"/><path class="cls-2" d="M139.32,36.61l-3.61-2.19a1.72,1.72,0,0,1,.07-3l3.69-2h0A1.73,1.73,0,0,1,142,31l-.09,4.21a1.73,1.73,0,0,1-2.62,1.44Zm.93-5.78-3.69,2a.09.09,0,0,0-.06.09.11.11,0,0,0,.05.09l3.61,2.18a.08.08,0,0,0,.1,0,.1.1,0,0,0,.06-.09l.09-4.22a.1.1,0,0,0,0-.09.1.1,0,0,0-.11,0Z"/><path class="cls-2" d="M110.33,14.7l-3.77,3.41A2.09,2.09,0,0,1,103.13,17l-1.06-5h0a2.09,2.09,0,0,1,.64-2,2.06,2.06,0,0,1,2-.43l4.83,1.56A2.07,2.07,0,0,1,111,12.72,2,2,0,0,1,110.33,14.7ZM104,11.62l1.06,5a.13.13,0,0,0,.09.09.12.12,0,0,0,.12,0L109,13.25a.1.1,0,0,0,0-.12A.11.11,0,0,0,109,13l-4.84-1.57a.13.13,0,0,0-.12,0,.14.14,0,0,0,0,.12Z"/><circle class="cls-3" cx="91.18" cy="72.73" r="15.38"/><path class="cls-4" d="M80.31,61.86a16,16,0,0,1,10.87-4.71,16.09,16.09,0,0,1,15.54,22,16.9,16.9,0,0,1-3.61,5.49,16.68,16.68,0,0,1-5.5,3.61,16.46,16.46,0,0,1-6.43,1.12A16.14,16.14,0,0,1,80.31,61.86Zm0,0a15.43,15.43,0,0,0-3.28,5,14.91,14.91,0,0,0-1,5.86A14.65,14.65,0,1,0,91.18,57.57a14.9,14.9,0,0,0-5.86,1A15.43,15.43,0,0,0,80.31,61.86Z"/><path class="cls-5" d="M95.09,73.36l3.24-3.23a2.5,2.5,0,0,0-3.54-3.54l-3.23,3.23-3.23-3.23a2.5,2.5,0,0,0-3.54,3.54L88,73.36l-3.23,3.23a2.5,2.5,0,0,0,3.54,3.54l3.23-3.24,3.23,3.24a2.5,2.5,0,0,0,3.54-3.54Z"/><path class="cls-6" d="M61.08,32.74l2-2a.81.81,0,0,0-1.15-1.15l-2,2-2-2a.81.81,0,0,0-1.14,1.15l2,2-2,2a.81.81,0,0,0,.57,1.38.83.83,0,0,0,.57-.23l2-2,2,2a.83.83,0,0,0,1.15,0,.83.83,0,0,0,0-1.15Z"/><path class="cls-6" d="M80.08,32.74l2-2a.81.81,0,0,0-1.15-1.15l-2,2-2-2a.81.81,0,0,0-1.14,1.15l2,2-2,2a.81.81,0,0,0,.57,1.38.83.83,0,0,0,.57-.23l2-2,2,2a.83.83,0,0,0,1.15,0,.83.83,0,0,0,0-1.15Z"/><path class="cls-7" d="M67.48,41a2.26,2.26,0,0,1,4.33,0"/></g></g></svg>