<?xml version="1.0" encoding="utf-8"?>
<!-- Generator: Adobe Illustrator 22.1.0, SVG Export Plug-In . SVG Version: 6.00 Build 0)  -->
<svg version="1.1" id="Слой_1" xmlns="http://www.w3.org/2000/svg" xmlns:xlink="http://www.w3.org/1999/xlink" x="0px" y="0px"
	 viewBox="0 0 361.6 86" style="enable-background:new 0 0 361.6 86;" xml:space="preserve">
<style type="text/css">
	.st0{fill:#4C4C4C;stroke:#4C4C4C;stroke-width:0.25;stroke-miterlimit:10;}
	.st1{fill:#02ADF4;stroke:#02ADF4;stroke-width:0.25;stroke-miterlimit:10;}
	.st2{fill:#02ADF4;}
</style>
<path class="st0" d="M110.2,41.8c0-10.9,8-18.3,18-18.3c6.4,0,10.8,3,13.6,7l-3.7,2.1c-2-3-5.7-5.1-9.9-5.1
	c-7.6,0-13.5,5.9-13.5,14.4c0,8.4,5.9,14.4,13.5,14.4c4.2,0,7.8-2.1,9.9-5.1l3.8,2.1c-3,4-7.2,7-13.6,7
	C118.2,60,110.2,52.6,110.2,41.8z"/>
<path class="st0" d="M163.3,56.5c-2.1,2.3-5,3.5-8.5,3.5c-4.3,0-9-2.9-9-8.5c0-5.7,4.6-8.4,9-8.4c3.5,0,6.4,1.1,8.5,3.5V42
	c0-3.4-2.8-5.4-6.5-5.4c-3.1,0-5.6,1.1-7.8,3.5l-1.9-2.8c2.8-2.9,6-4.2,10.2-4.2c5.4,0,9.9,2.4,9.9,8.6v17.6h-4V56.5z M163.3,49.2
	c-1.5-2.1-4.2-3.2-7-3.2c-3.7,0-6.3,2.3-6.3,5.6c0,3.2,2.6,5.6,6.3,5.6c2.8,0,5.5-1.1,7-3.2V49.2z"/>
<path class="st0" d="M175.2,24.1h4v35.3h-4V24.1z"/>
<path class="st0" d="M187.1,24.1h4v35.3h-4V24.1z"/>
<path class="st1" d="M207.2,43.5l-3.5,4v11.9h-4.4V24.1h4.4v18.3l15.6-18.3h5.5L210,40.9l16,18.5h-5.5L207.2,43.5z"/>
<path class="st1" d="M240.2,33.2c7.7,0,12.3,6,12.3,13.7v1h-20.7c0.3,4.8,3.7,8.8,9.2,8.8c2.9,0,5.9-1.2,7.9-3.2l1.9,2.6
	c-2.5,2.5-6,3.9-10.2,3.9c-7.6,0-13-5.5-13-13.5C227.6,39.2,232.9,33.2,240.2,33.2z M231.8,45h16.8c-0.1-3.8-2.6-8.5-8.4-8.5
	C234.7,36.5,232,41.1,231.8,45z"/>
<path class="st1" d="M270,33.2c7.7,0,12.3,6,12.3,13.7v1h-20.7c0.3,4.8,3.7,8.8,9.2,8.8c2.9,0,5.9-1.2,7.9-3.2l1.9,2.6
	c-2.5,2.5-6,3.9-10.2,3.9c-7.6,0-13-5.5-13-13.5C257.4,39.2,262.7,33.2,270,33.2z M261.6,45h16.8c-0.1-3.8-2.6-8.5-8.4-8.5
	C264.5,36.5,261.8,41.1,261.6,45z"/>
<path class="st1" d="M288.8,69.2V33.8h4v3.8c1.9-2.6,5-4.5,8.6-4.5c6.7,0,11.4,5.1,11.4,13.4c0,8.3-4.7,13.5-11.4,13.5
	c-3.5,0-6.6-1.6-8.6-4.5v13.6H288.8z M300.4,36.7c-3.1,0-6.3,1.9-7.6,4.1v11.5c1.4,2.2,4.5,4.1,7.6,4.1c5.1,0,8.2-4.2,8.2-9.9
	C308.6,40.9,305.5,36.7,300.4,36.7z"/>
<path class="st1" d="M330.3,33.2c7.7,0,12.3,6,12.3,13.7v1h-20.7c0.3,4.8,3.7,8.8,9.2,8.8c2.9,0,5.9-1.2,7.9-3.2l1.9,2.6
	c-2.5,2.5-6,3.9-10.2,3.9c-7.6,0-13-5.5-13-13.5C317.7,39.2,323,33.2,330.3,33.2z M321.9,45h16.8c-0.1-3.8-2.6-8.5-8.4-8.5
	C324.8,36.5,322.1,41.1,321.9,45z"/>
<path class="st1" d="M349,33.8h4V38c2.1-2.7,5-4.7,8.5-4.7v4.1c-0.5-0.1-1-0.2-1.6-0.2c-2.4,0-5.8,2-6.9,4.1v18.1h-4V33.8z"/>
<g>
	<path class="st2" d="M39.8,28.1c-1.5,0-2.8,1.2-2.8,2.8c0,1.5,1.2,2.8,2.8,2.8c3.5,0,6.7,1.4,9,3.6c2.3,2.3,3.7,5.3,3.7,8.7
		c0,1.5,1.2,2.8,2.8,2.8c1.5,0,2.8-1.2,2.8-2.8c0-5-2.1-9.5-5.3-12.7C49.4,30.1,44.8,28.1,39.8,28.1z"/>
	<path class="st2" d="M65.8,47.3c2.8,0,2.8-2.8,2.8-2.8c0-7.4-3.1-14.2-8-19c-4.9-4.9-11.8-7.9-19.3-7.9c-1.5,0-2.8,1.2-2.8,2.8
		c0,1.5,1.2,2.8,2.8,2.8c6,0,11.5,2.4,15.4,6.3c3.9,3.9,6.4,9.2,6.4,15.1C63,44.5,63,47.3,65.8,47.3z"/>
	<path class="st2" d="M43,0C19.2,0,0,19.3,0,43c0,23.7,19.2,43,43,43c9.8,0,19.3-2.7,26-8.8c8.2-7.4,1.6-12.5-4.5-14.1
		c0.2-0.8,0.4-1.5,0.5-1.8c0.6-4.1-14.4-10-16.4-5.9c-0.6,1.1-1.3,4.5-4.8,2.4c-2.4-1.4-14.2-13.2-15.6-15.6
		c-2.1-3.4,1.3-4.2,2.4-4.8c4-2-1.8-17-5.9-16.4c-1,0.1-6.5,1.9-7.7,2.4c-2.2,1.1-5.3,6.3-3.3,13c1.5,5,4.5,12.9,13.7,22.1
		c9.2,9.2,17,12.2,22.1,13.7c6.7,2,11.9-1.1,13-3.3c0.1-0.2,0.2-0.6,0.4-1c6.3,1.5,4.7,4.6,1.5,6.8C59,78.5,51,81,43,81
		C22,81,5,64,5,43S22,5,43,5c21,0,38,17,38,38c0,7.9-1.9,13.1-4.4,17.2c-2,3.8-0.7,9.1,0.8,7.8c5.8-6.1,8.6-16.2,8.6-25
		C86,19.3,66.7,0,43,0z"/>
</g>
</svg>
